<?xml version="1.0" standalone="no"?>
<!DOCTYPE svg PUBLIC "-//W3C//DTD SVG 20010904//EN"
 "http://www.w3.org/TR/2001/REC-SVG-20010904/DTD/svg10.dtd">
<svg version="1.0" xmlns="http://www.w3.org/2000/svg"
 width="511.831212pt" height="512.000000pt" viewBox="0 0 511.831212 512.000000"
 preserveAspectRatio="xMidYMid meet">
<metadata>
Created by potrace 1.12, written by Peter Selinger 2001-2015
</metadata>
<g transform="translate(0.000000,512.000000) scale(0.100000,-0.100000)"
fill="#000000" stroke="none">
<path d="M0 2560 l0 -2560 1235 0 1236 0 -29 43 c-47 68 -98 176 -127 270
l-27 87 -944 0 -944 0 0 2160 0 2160 860 0 860 0 0 -500 0 -500 700 0 700 0 0
-219 0 -220 68 28 c76 31 189 64 275 81 l57 11 0 312 0 312 -768 548 -767 547
-1192 0 -1193 0 0 -2560z m2815 1760 c149 -106 272 -194 274 -196 2 -2 -125
-4 -282 -4 l-287 0 0 206 c0 164 3 204 13 196 6 -5 134 -96 282 -202z"/>
<path d="M3926 2994 c-140 -27 -293 -95 -401 -177 -33 -25 -358 -344 -723
-709 l-662 -663 140 -140 140 -140 662 661 c411 409 683 673 716 694 93 57
175 82 292 88 173 8 324 -46 439 -157 226 -217 253 -548 66 -800 -18 -25 -301
-312 -627 -638 -539 -537 -597 -592 -638 -603 -97 -26 -191 15 -234 102 -14
28 -26 68 -26 87 1 84 12 97 685 771 l645 645 -140 140 -140 140 -673 -675
c-641 -642 -675 -679 -710 -750 -50 -101 -71 -202 -63 -308 11 -155 67 -275
181 -388 183 -182 447 -223 685 -108 72 35 103 64 703 663 346 344 649 652
673 684 140 179 215 426 201 662 -16 256 -125 486 -315 666 -191 181 -421 270
-691 268 -64 0 -147 -7 -185 -15z"/>
</g>
</svg>
