<?xml version="1.0" standalone="no"?>
<!DOCTYPE svg PUBLIC "-//W3C//DTD SVG 20010904//EN"
 "http://www.w3.org/TR/2001/REC-SVG-20010904/DTD/svg10.dtd">
<svg version="1.0" xmlns="http://www.w3.org/2000/svg"
 width="279.334465pt" height="511.300723pt" viewBox="0 0 279.334465 511.300723"
 preserveAspectRatio="xMidYMid meet">
<metadata>
Created by potrace 1.12, written by Peter Selinger 2001-2015
</metadata>
<g transform="translate(-116.081618,511.800723) scale(0.100000,-0.100000)"
fill="#000000" stroke="none">
<path d="M1292 5109 c-47 -14 -109 -80 -123 -131 -23 -86 5 -390 56 -608 86
-362 241 -696 513 -1104 146 -221 198 -279 261 -296 120 -32 239 51 249 173 6
69 -7 98 -113 248 l-87 124 289 5 290 5 40 27 c62 41 88 90 88 168 0 78 -26
127 -88 168 l-41 27 -407 3 -407 3 -45 98 c-25 55 -62 144 -81 200 l-35 101
909 0 909 0 -18 -52 c-94 -270 -252 -561 -464 -855 -127 -176 -233 -308 -589
-735 -435 -522 -618 -761 -781 -1023 -295 -475 -447 -940 -451 -1375 -1 -136
0 -147 23 -183 13 -21 42 -50 64 -65 34 -23 52 -27 107 -27 55 0 73 4 107 27
68 45 85 83 94 217 4 64 8 124 8 134 1 16 55 17 991 17 936 0 990 -1 991 -17
0 -10 4 -70 8 -134 9 -134 26 -172 94 -217 34 -22 52 -27 106 -27 79 0 128 25
169 88 26 40 27 44 26 191 -4 390 -132 818 -375 1254 -93 167 -311 493 -368
553 -70 72 -140 86 -228 45 -66 -31 -105 -86 -111 -159 -6 -69 7 -98 113 -248
l87 -124 -289 -5 c-281 -5 -289 -6 -326 -29 -21 -13 -50 -42 -65 -64 -22 -34
-27 -52 -27 -106 0 -79 25 -128 88 -169 l41 -27 407 -3 407 -3 45 -98 c25 -55
62 -144 81 -200 l35 -101 -909 0 -909 0 18 53 c120 341 332 700 657 1109 89
112 161 199 570 689 585 700 866 1181 994 1701 43 174 63 326 64 489 1 142 0
146 -26 186 -41 62 -90 88 -168 88 -77 0 -127 -26 -167 -86 -22 -34 -27 -55
-34 -157 -4 -64 -8 -125 -8 -134 -1 -17 -55 -18 -991 -18 -545 0 -990 3 -990
8 -17 256 -17 260 -40 297 -46 74 -150 111 -238 84z"/>
</g>
</svg>
