<?xml version="1.0" standalone="no"?>
<!DOCTYPE svg PUBLIC "-//W3C//DTD SVG 20010904//EN"
 "http://www.w3.org/TR/2001/REC-SVG-20010904/DTD/svg10.dtd">
<svg version="1.0" xmlns="http://www.w3.org/2000/svg"
 width="374.060018pt" height="457.868957pt" viewBox="0 0 374.060018 457.868957"
 preserveAspectRatio="xMidYMid meet">
<metadata>
Created by potrace 1.12, written by Peter Selinger 2001-2015
</metadata>
<g transform="translate(-68.969991,484.885821) scale(0.100000,-0.100000)"
fill="#000000" stroke="none">
<path d="M1057 4839 c-173 -41 -327 -209 -356 -389 -15 -90 -15 -3690 0 -3780
29 -183 183 -349 360 -389 60 -14 2938 -14 2998 0 177 40 331 206 360 389 15
90 15 3690 0 3780 -29 183 -183 349 -360 389 -56 13 -2947 13 -3002 0z m2973
-332 c19 -12 43 -38 54 -57 21 -35 21 -37 21 -1890 0 -1853 0 -1855 -21 -1890
-11 -19 -35 -45 -54 -57 l-33 -23 -1437 0 -1437 0 -34 23 c-19 12 -44 42 -56
67 l-23 44 0 1836 0 1836 23 44 c12 25 37 55 56 67 l34 23 1437 0 1437 0 33
-23z"/>
<path d="M1409 4187 c-19 -12 -44 -42 -57 -67 l-23 -45 3 -460 c3 -460 3 -460
26 -497 13 -21 40 -45 66 -57 42 -21 50 -21 1136 -21 1086 0 1094 0 1136 21
26 12 53 36 66 57 l23 37 0 470 c0 456 -1 471 -21 505 -11 19 -35 45 -54 57
l-33 23 -1117 0 -1117 0 -34 -23z m2061 -562 l0 -265 -910 0 -910 0 0 265 0
265 910 0 910 0 0 -265z"/>
<path d="M1648 2658 c-21 -5 -58 -28 -82 -50 -113 -98 -89 -275 45 -342 88
-44 176 -30 245 39 152 152 0 411 -208 353z"/>
<path d="M2510 2661 c-105 -34 -160 -106 -160 -211 0 -58 23 -111 67 -152 104
-99 273 -65 334 67 34 74 19 176 -34 233 -47 51 -149 82 -207 63z"/>
<path d="M3362 2660 c-57 -13 -108 -55 -136 -111 -44 -89 -31 -175 37 -243 70
-70 157 -84 246 -40 127 64 155 219 59 328 -29 34 -53 50 -91 61 -55 16 -66
17 -115 5z"/>
<path d="M1648 2018 c-21 -5 -58 -28 -82 -50 -113 -98 -89 -275 45 -342 88
-44 176 -30 245 39 152 152 0 411 -208 353z"/>
<path d="M2510 2021 c-105 -34 -160 -106 -160 -211 0 -182 220 -277 354 -152
81 76 88 220 13 300 -47 51 -149 82 -207 63z"/>
<path d="M3364 2019 c-47 -13 -101 -79 -109 -131 -3 -24 -5 -216 -3 -428 3
-381 3 -385 26 -422 31 -49 99 -82 154 -75 48 6 84 30 116 77 22 33 22 34 22
455 0 421 0 422 -23 456 -23 36 -97 80 -132 78 -11 0 -34 -5 -51 -10z"/>
<path d="M1648 1378 c-21 -5 -58 -28 -82 -50 -113 -98 -89 -275 45 -342 88
-44 176 -30 245 39 152 152 0 411 -208 353z"/>
<path d="M2510 1381 c-105 -34 -160 -106 -160 -211 0 -182 220 -277 354 -152
81 76 88 220 13 300 -47 51 -149 82 -207 63z"/>
</g>
</svg>
