<?xml version="1.0" standalone="no"?>
<!DOCTYPE svg PUBLIC "-//W3C//DTD SVG 20010904//EN"
 "http://www.w3.org/TR/2001/REC-SVG-20010904/DTD/svg10.dtd">
<svg version="1.0" xmlns="http://www.w3.org/2000/svg"
 width="342.968014pt" height="343.056866pt" viewBox="0 0 342.968014 343.056866"
 preserveAspectRatio="xMidYMid meet">
<metadata>
Created by potrace 1.12, written by Peter Selinger 2001-2015
</metadata>
<g transform="translate(-85.018255,428.062058) scale(0.100000,-0.100000)"
fill="#000000" stroke="none">
<path d="M3990 4259 c-19 -11 -232 -217 -472 -457 l-438 -437 0 338 c0 265 -3
345 -14 370 -17 39 -71 92 -109 106 -69 26 -163 4 -214 -51 -53 -57 -53 -51
-53 -685 0 -551 2 -591 19 -628 22 -47 64 -89 104 -104 19 -7 228 -11 627 -11
399 0 608 4 627 11 64 24 123 109 123 179 0 40 -28 105 -59 137 -55 57 -59 58
-425 61 l-339 3 445 447 c484 485 476 476 465 575 -8 61 -44 116 -96 145 -53
30 -142 30 -191 1z"/>
<path d="M1055 2421 c-155 -72 -151 -289 7 -356 31 -12 92 -15 370 -15 l332 0
-441 -442 c-301 -301 -447 -455 -457 -480 -54 -129 41 -278 178 -278 76 0 85
8 553 474 l452 450 3 -356 3 -356 31 -38 c59 -73 165 -100 240 -61 44 23 91
80 104 127 7 26 10 230 8 622 -3 569 -4 584 -24 623 -11 22 -40 54 -63 70
l-43 30 -606 2 c-573 3 -609 2 -647 -16z"/>
</g>
</svg>
