<?xml version="1.0" standalone="no"?>
<!DOCTYPE svg PUBLIC "-//W3C//DTD SVG 20010904//EN"
 "http://www.w3.org/TR/2001/REC-SVG-20010904/DTD/svg10.dtd">
<svg version="1.0" xmlns="http://www.w3.org/2000/svg"
 width="447.529917pt" height="446.370171pt" viewBox="0 0 447.529917 446.370171"
 preserveAspectRatio="xMidYMid meet">
<metadata>
Created by potrace 1.12, written by Peter Selinger 2001-2015
</metadata>
<g transform="translate(-32.199747,478.868317) scale(0.100000,-0.100000)"
fill="#000000" stroke="none">
<path d="M2682 4773 c-42 -20 -69 -55 -83 -105 -6 -25 -9 -147 -7 -331 3 -287
3 -293 27 -330 27 -44 85 -77 137 -77 43 0 101 31 129 68 19 26 20 43 20 362
0 319 -1 336 -20 362 -46 62 -135 85 -203 51z"/>
<path d="M1113 4120 c-98 -23 -149 -121 -112 -217 5 -15 105 -124 222 -241
225 -225 260 -251 329 -238 51 10 95 41 118 85 23 47 25 89 6 134 -18 41 -443
463 -476 472 -46 12 -55 13 -87 5z"/>
<path d="M3982 4023 c-52 -25 -70 -61 -103 -209 -277 -1242 -1330 -2294 -2573
-2573 -77 -17 -150 -40 -166 -51 -55 -39 -77 -137 -45 -199 19 -38 139 -149
256 -236 293 -219 617 -355 981 -412 157 -24 481 -24 633 1 622 100 1138 431
1482 950 451 680 468 1588 43 2292 -104 172 -297 406 -361 439 -37 20 -106 19
-147 -2z"/>
<path d="M2645 3605 c-135 -24 -254 -63 -380 -124 -150 -73 -264 -154 -381
-271 -400 -395 -523 -978 -322 -1517 11 -29 25 -53 31 -53 20 0 246 107 362
172 288 160 540 351 781 592 290 290 509 597 685 960 32 66 56 123 53 127 -8
14 -163 69 -267 95 -88 22 -129 26 -292 30 -134 2 -214 -1 -270 -11z"/>
<path d="M410 2498 c-33 -17 -51 -35 -68 -68 -39 -76 -20 -151 52 -204 26 -20
42 -21 347 -24 312 -3 321 -2 358 19 77 43 105 150 59 219 -13 18 -36 43 -51
54 -27 20 -42 21 -340 24 -308 3 -313 2 -357 -20z"/>
</g>
</svg>
