<?xml version="1.0" standalone="no"?>
<!DOCTYPE svg PUBLIC "-//W3C//DTD SVG 20010904//EN"
 "http://www.w3.org/TR/2001/REC-SVG-20010904/DTD/svg10.dtd">
<svg version="1.0" xmlns="http://www.w3.org/2000/svg"
 width="511.697347pt" height="511.574747pt" viewBox="0 0 511.697347 511.574747"
 preserveAspectRatio="xMidYMid meet">
<metadata>
Created by potrace 1.12, written by Peter Selinger 2001-2015
</metadata>
<g transform="translate(-0.151326,512.000000) scale(0.100000,-0.100000)"
fill="#000000" stroke="none">
<path d="M2490 5101 c-19 -10 -45 -33 -57 -51 -22 -32 -23 -40 -23 -298 0
-254 1 -266 22 -300 22 -36 85 -72 128 -72 43 0 106 36 128 72 21 34 22 46 22
300 0 258 -1 266 -22 298 -28 41 -81 70 -128 70 -19 0 -51 -8 -70 -19z"/>
<path d="M754 4366 c-41 -40 -44 -47 -44 -95 0 -29 6 -64 14 -79 8 -15 95
-106 193 -203 161 -160 182 -178 221 -184 98 -16 193 79 177 177 -6 39 -24 60
-184 221 -97 98 -188 185 -203 193 -15 8 -50 14 -79 14 -48 0 -55 -3 -95 -44z"/>
<path d="M4185 4391 c-16 -10 -107 -97 -201 -192 -155 -157 -173 -178 -179
-217 -16 -98 79 -193 177 -177 39 6 60 24 221 184 98 97 185 188 193 203 8 15
14 50 14 79 0 48 -3 55 -44 95 -40 41 -47 44 -97 44 -36 0 -64 -7 -84 -19z"/>
<path d="M2420 4024 c-182 -23 -316 -60 -465 -127 -438 -197 -754 -602 -842
-1081 -23 -124 -23 -388 0 -512 112 -608 583 -1079 1191 -1191 124 -23 388
-23 512 0 608 112 1079 583 1191 1191 23 124 23 388 0 512 -111 605 -587 1082
-1185 1190 -86 15 -335 26 -402 18z"/>
<path d="M70 2688 c-91 -63 -91 -193 0 -255 32 -22 40 -23 298 -23 254 0 266
1 300 22 36 22 72 85 72 128 0 43 -36 106 -72 128 -34 21 -46 22 -300 22 -258
0 -266 -1 -298 -22z"/>
<path d="M4449 2686 c-37 -25 -69 -86 -69 -129 1 -41 37 -103 72 -125 34 -21
46 -22 300 -22 258 0 266 1 298 23 91 62 91 192 0 255 -32 21 -40 22 -299 22
-266 0 -266 0 -302 -24z"/>
<path d="M1115 1309 c-32 -9 -366 -335 -391 -381 -8 -15 -14 -50 -14 -79 0
-48 3 -55 44 -95 40 -41 47 -44 95 -44 29 0 64 6 79 14 15 8 106 95 203 193
160 161 178 182 184 221 10 63 -25 129 -85 160 -47 23 -67 26 -115 11z"/>
<path d="M3890 1298 c-60 -31 -95 -97 -85 -160 6 -39 24 -60 184 -221 97 -98
188 -185 203 -193 15 -8 50 -14 79 -14 48 0 55 3 95 44 41 40 44 47 44 95 0
29 -6 64 -14 79 -8 15 -93 105 -188 200 -205 204 -227 216 -318 170z"/>
<path d="M2494 721 c-24 -11 -50 -33 -62 -53 -21 -34 -22 -46 -22 -300 0 -258
1 -266 23 -298 62 -91 192 -91 255 0 21 32 22 40 22 298 0 254 -1 266 -22 300
-22 36 -85 72 -128 72 -14 0 -43 -9 -66 -19z"/>
</g>
</svg>
