<?xml version="1.0" standalone="no"?>
<!DOCTYPE svg PUBLIC "-//W3C//DTD SVG 20010904//EN"
 "http://www.w3.org/TR/2001/REC-SVG-20010904/DTD/svg10.dtd">
<svg version="1.0" xmlns="http://www.w3.org/2000/svg"
 width="512.000000pt" height="512.000000pt" viewBox="0 0 512.000000 512.000000"
 preserveAspectRatio="xMidYMid meet">
<metadata>
Created by potrace 1.12, written by Peter Selinger 2001-2015
</metadata>
<g transform="translate(0.000000,512.000000) scale(0.100000,-0.100000)"
fill="#000000" stroke="none">
<path d="M2590 4970 l-100 -150 -645 0 -645 0 0 -300 0 -300 -150 0 -150 0 0
-300 0 -300 -150 0 -150 0 0 -202 0 -203 -300 -450 -300 -450 0 -1157 0 -1158
2560 0 2560 0 0 1158 0 1157 -300 450 -300 450 0 353 0 352 -150 0 -150 0 0
300 0 300 -150 0 -150 0 0 300 0 300 -615 0 -615 0 -100 -150z m1030 -300 l0
-150 -315 0 -315 0 -100 -150 -100 -150 -645 0 -645 0 0 150 0 150 575 0 575
0 100 150 100 150 385 0 385 0 0 -150z m300 -600 l0 -150 -315 0 -315 0 -100
-150 -100 -150 -945 0 -945 0 0 150 0 150 875 0 875 0 100 150 100 150 385 0
385 0 0 -150z m300 -1050 l0 -600 -529 0 -529 0 -49 -147 -50 -148 -503 0
-503 0 -49 148 -50 147 -529 0 -529 0 0 450 0 450 1175 0 1175 0 100 150 100
150 385 0 385 0 0 -600z m-3620 -475 l0 -125 -85 0 -85 0 82 125 c46 68 84
125 86 125 1 0 2 -56 2 -125z m4009 -2 l81 -123 -85 0 -85 0 0 127 c0 69 2
124 4 122 2 -2 40 -59 85 -126z m-2816 -575 l49 -148 718 0 718 0 49 148 50
147 721 3 722 2 0 -910 0 -910 -2260 0 -2260 0 0 910 0 910 722 -2 721 -3 50
-147z"/>
<path d="M1800 1370 l0 -150 760 0 760 0 0 150 0 150 -760 0 -760 0 0 -150z"/>
</g>
</svg>
