<?xml version="1.0" standalone="no"?>
<!DOCTYPE svg PUBLIC "-//W3C//DTD SVG 20010904//EN"
 "http://www.w3.org/TR/2001/REC-SVG-20010904/DTD/svg10.dtd">
<svg version="1.0" xmlns="http://www.w3.org/2000/svg"
 width="373.768224pt" height="503.381001pt" viewBox="0 0 373.768224 503.381001"
 preserveAspectRatio="xMidYMid meet">
<metadata>
Created by potrace 1.12, written by Peter Selinger 2001-2015
</metadata>
<g transform="translate(-69.117087,507.878927) scale(0.100000,-0.100000)"
fill="#000000" stroke="none">
<path d="M2080 5069 c-68 -13 -160 -63 -212 -114 -94 -92 -128 -186 -128 -352
l0 -102 -367 -3 -368 -3 -68 -32 c-89 -42 -168 -121 -210 -210 l-32 -68 -3
-350 c-2 -226 0 -363 7 -386 26 -86 112 -162 202 -177 33 -6 45 -12 47 -27 1
-11 36 -609 77 -1330 55 -973 78 -1325 90 -1370 49 -185 178 -344 349 -429
147 -74 97 -71 1096 -71 997 0 947 -3 1095 70 170 83 303 247 350 430 12 43
37 425 91 1380 41 726 76 1326 79 1333 2 6 17 12 33 12 40 0 127 46 158 83 64
76 65 80 62 475 l-3 358 -37 75 c-46 93 -112 158 -206 202 l-67 32 -367 3
-368 3 0 102 c0 165 -34 260 -126 352 -52 52 -147 101 -223 115 -66 12 -887
11 -951 -1z m943 -263 c38 -16 84 -66 94 -104 4 -15 8 -65 8 -112 l0 -85 -565
0 -565 0 0 85 c0 102 7 129 42 171 49 58 48 58 521 59 343 0 439 -3 465 -14z
m1044 -571 c48 -20 71 -41 94 -87 18 -34 18 -55 12 -332 l-6 -296 -1116 0
c-1089 0 -1117 -1 -1148 -20 -96 -58 -73 -200 36 -230 23 -6 397 -10 1004 -10
l967 0 0 -47 c0 -113 -141 -2543 -150 -2587 -25 -120 -117 -232 -238 -289
l-67 -32 -895 0 -895 0 -67 32 c-123 58 -215 172 -238 295 -10 48 -150 2469
-150 2579 l0 47 103 4 c56 3 114 11 130 18 61 30 85 116 47 177 -34 57 -59 63
-253 63 -96 0 -202 3 -236 6 l-61 7 0 284 c0 233 3 290 15 320 21 50 42 72 90
94 38 18 105 19 1513 19 1303 0 1477 -2 1509 -15z"/>
<path d="M1972 2730 c-68 -42 -68 6 -11 -957 55 -959 49 -911 122 -947 70 -34
160 9 175 84 11 49 -84 1704 -100 1755 -25 76 -116 108 -186 65z"/>
<path d="M3009 2727 c-22 -15 -38 -37 -47 -62 -16 -51 -111 -1707 -101 -1755
17 -76 107 -118 176 -83 72 36 67 -2 122 951 56 957 57 910 -11 952 -44 27
-97 26 -139 -3z"/>
</g>
</svg>
