<?xml version="1.0" standalone="no"?>
<!DOCTYPE svg PUBLIC "-//W3C//DTD SVG 20010904//EN"
 "http://www.w3.org/TR/2001/REC-SVG-20010904/DTD/svg10.dtd">
<svg version="1.0" xmlns="http://www.w3.org/2000/svg"
 width="319.500000pt" height="447.679688pt" viewBox="0 0 319.500000 447.679688"
 preserveAspectRatio="xMidYMid meet">
<metadata>
Created by potrace 1.12, written by Peter Selinger 2001-2015
</metadata>
<g transform="translate(-96.000000,479.916108) scale(0.100000,-0.100000)"
fill="#000000" stroke="none">
<path d="M1940 4556 c-487 -133 -897 -250 -912 -260 -15 -10 -36 -37 -48 -60
-20 -42 -20 -50 -20 -1678 l0 -1635 23 -42 c13 -25 37 -51 57 -62 19 -11 433
-128 920 -260 740 -202 893 -240 933 -236 51 4 88 26 121 71 l21 27 0 2139 0
2139 -21 28 c-37 50 -81 73 -138 72 -33 0 -356 -84 -936 -243z m780 -1997 c0
-1777 -1 -1870 -17 -1865 -35 10 -1414 386 -1419 386 -2 0 -4 665 -4 1479 l0
1479 98 26 c53 15 374 103 712 196 338 92 618 169 623 169 4 1 7 -841 7 -1870z"/>
<path d="M2175 2866 c-41 -18 -83 -69 -90 -109 -4 -18 -5 -118 -3 -224 3 -210
5 -218 72 -267 39 -29 133 -29 172 0 68 51 69 53 69 294 0 205 -1 220 -21 246
-11 15 -32 37 -46 47 -33 25 -113 32 -153 13z"/>
<path d="M3455 4306 c-94 -42 -124 -169 -58 -247 45 -53 73 -59 268 -59 l175
0 0 -1439 0 -1440 -189 -3 c-173 -3 -192 -5 -217 -24 -53 -39 -69 -71 -69
-134 0 -63 16 -95 69 -134 26 -20 41 -21 259 -21 l232 0 51 27 c76 40 107 70
145 140 l34 63 0 1525 0 1525 -34 63 c-37 69 -80 109 -151 144 -42 21 -60 23
-265 25 -170 2 -227 0 -250 -11z"/>
</g>
</svg>
