<?xml version="1.0" standalone="no"?>
<!DOCTYPE svg PUBLIC "-//W3C//DTD SVG 20010904//EN"
 "http://www.w3.org/TR/2001/REC-SVG-20010904/DTD/svg10.dtd">
<svg version="1.0" xmlns="http://www.w3.org/2000/svg"
 width="511.632358pt" height="511.499028pt" viewBox="0 0 511.632358 511.499028"
 preserveAspectRatio="xMidYMid meet">
<metadata>
Created by potrace 1.12, written by Peter Selinger 2001-2015
</metadata>
<g transform="translate(-0.150390,511.603242) scale(0.100000,-0.100000)"
fill="#000000" stroke="none">
<path d="M3025 5106 c-133 -26 -239 -73 -340 -149 -33 -25 -263 -249 -511
-499 -444 -446 -451 -454 -497 -543 -82 -162 -111 -323 -88 -485 16 -105 47
-192 128 -354 l65 -129 -880 -881 c-787 -787 -882 -886 -892 -923 -7 -30 -10
-195 -8 -527 l3 -484 30 -43 c17 -23 48 -52 70 -63 39 -20 56 -21 515 -24 528
-3 540 -2 600 58 53 53 60 91 60 309 l0 191 191 0 c218 0 256 7 309 60 53 53
60 91 60 309 l0 191 191 0 c218 0 256 7 309 60 95 95 68 261 -52 319 -42 20
-58 21 -370 21 -321 0 -325 0 -369 -23 -24 -13 -57 -43 -74 -66 l-30 -43 -3
-214 -3 -214 -203 0 c-193 0 -205 -1 -247 -23 -24 -13 -57 -43 -74 -66 l-30
-43 -3 -214 -3 -214 -240 0 -239 0 0 297 0 298 904 905 c735 736 906 912 916
944 23 71 10 120 -73 272 -153 279 -186 384 -157 505 28 120 36 129 495 585
239 238 455 444 479 458 54 32 144 56 207 56 106 0 369 -111 599 -254 182
-112 391 -294 522 -454 135 -165 296 -441 389 -667 29 -71 33 -91 33 -176 1
-90 -1 -99 -36 -170 -35 -69 -65 -102 -470 -505 -264 -263 -451 -442 -480
-459 -89 -50 -199 -67 -298 -44 -43 10 -277 120 -409 194 -52 28 -74 35 -120
35 -177 -1 -263 -210 -137 -334 73 -71 410 -240 561 -281 148 -40 345 -28 491
31 143 57 173 82 564 467 611 602 626 619 689 793 67 184 65 374 -5 562 -181
485 -499 921 -880 1208 -236 178 -587 362 -808 425 -93 26 -258 33 -351 15z"/>
<path d="M3553 4026 c-100 -32 -154 -80 -204 -176 -34 -66 -34 -195 1 -265 31
-64 92 -124 155 -156 41 -20 65 -24 135 -24 100 0 159 23 225 89 65 66 89 126
89 226 0 73 -4 92 -27 137 -36 69 -88 120 -155 151 -66 30 -159 38 -219 18z"/>
</g>
</svg>
