<?xml version="1.0" standalone="no"?>
<!DOCTYPE svg PUBLIC "-//W3C//DTD SVG 20010904//EN"
 "http://www.w3.org/TR/2001/REC-SVG-20010904/DTD/svg10.dtd">
<svg version="1.0" xmlns="http://www.w3.org/2000/svg"
 width="495.000000pt" height="470.459744pt" viewBox="0 0 495.000000 470.459744"
 preserveAspectRatio="xMidYMid meet">
<metadata>
Created by potrace 1.12, written by Peter Selinger 2001-2015
</metadata>
<g transform="translate(-11.000000,484.000000) scale(0.100000,-0.100000)"
fill="#000000" stroke="none">
<path d="M898 4448 l-3 -393 -393 -3 -392 -2 0 -305 0 -305 395 0 395 0 0
-390 0 -390 305 0 305 0 0 390 0 390 390 0 390 0 0 305 0 305 -390 0 -390 0 0
395 0 395 -305 0 -305 0 -2 -392z"/>
<path d="M2880 3750 l0 -310 1090 0 1090 0 0 310 0 310 -1090 0 -1090 0 0
-310z"/>
<path d="M3880 2521 c-134 -41 -212 -148 -213 -291 -1 -150 76 -254 219 -296
223 -64 429 135 379 367 -19 88 -106 184 -192 213 -48 17 -149 20 -193 7z"/>
<path d="M430 1955 l-215 -215 278 -278 277 -277 -277 -278 -278 -277 218
-217 217 -218 277 278 278 277 278 -278 279 -277 214 220 215 219 -276 275
-275 276 277 277 278 278 -218 217 -217 218 -278 -278 -277 -277 -275 275
c-151 151 -277 275 -280 275 -3 0 -102 -97 -220 -215z"/>
<path d="M2880 1330 l0 -310 1090 0 1090 0 0 310 0 310 -1090 0 -1090 0 0
-310z"/>
<path d="M3853 720 c-65 -26 -131 -89 -163 -155 -19 -40 -24 -66 -24 -130 1
-97 23 -154 84 -215 63 -63 119 -85 215 -85 103 1 168 28 230 97 132 147 88
385 -89 475 -71 36 -179 42 -253 13z"/>
</g>
</svg>
