<?xml version="1.0" standalone="no"?>
<!DOCTYPE svg PUBLIC "-//W3C//DTD SVG 20010904//EN"
 "http://www.w3.org/TR/2001/REC-SVG-20010904/DTD/svg10.dtd">
<svg version="1.0" xmlns="http://www.w3.org/2000/svg"
 width="511.474200pt" height="511.132107pt" viewBox="0 0 511.474200 511.132107"
 preserveAspectRatio="xMidYMid meet">
<metadata>
Created by potrace 1.12, written by Peter Selinger 2001-2015
</metadata>
<g transform="translate(-0.525800,511.669197) scale(0.100000,-0.100000)"
fill="#000000" stroke="none">
<path d="M2325 5109 c-913 -91 -1727 -679 -2104 -1517 -91 -202 -158 -437
-198 -687 -24 -150 -24 -534 0 -688 90 -587 341 -1078 758 -1483 208 -201 412
-345 664 -469 253 -124 507 -202 780 -242 149 -21 514 -24 655 -4 671 92 1267
428 1680 946 152 191 311 472 394 697 41 110 45 159 16 206 -31 51 -76 74
-136 69 -45 -3 -63 -12 -140 -69 -114 -84 -152 -107 -271 -167 -470 -235
-1010 -253 -1499 -50 -409 170 -758 503 -944 901 -301 647 -194 1394 279 1945
85 99 224 222 342 303 95 65 116 90 124 147 7 53 -13 101 -58 137 -38 30 -42
31 -145 33 -59 0 -147 -3 -197 -8z"/>
<path d="M3398 4799 c-45 -23 -78 -81 -78 -136 0 -62 -28 -163 -61 -220 -77
-135 -238 -233 -381 -233 -84 0 -158 -71 -158 -150 0 -78 74 -150 154 -150
203 0 391 -155 435 -358 6 -29 11 -69 11 -88 0 -80 72 -154 150 -154 78 0 150
74 150 154 0 202 156 391 358 435 29 6 69 11 88 11 80 0 154 72 154 150 0 79
-74 150 -158 150 -100 0 -220 52 -301 132 -85 83 -140 209 -141 321 0 118
-119 191 -222 136z"/>
<path d="M4598 4799 c-43 -22 -78 -81 -78 -129 0 -17 9 -49 20 -70 23 -45 80
-80 130 -80 17 0 49 9 70 20 45 23 80 80 80 130 0 50 -35 107 -80 130 -49 25
-94 25 -142 -1z"/>
<path d="M4898 3589 c-43 -22 -78 -81 -78 -129 0 -50 35 -107 80 -130 21 -11
53 -20 70 -20 50 0 107 35 130 80 11 21 20 53 20 70 0 50 -35 107 -80 130 -49
25 -94 25 -142 -1z"/>
</g>
</svg>
