<svg id="Слой_1" data-name="Слой 1" xmlns="http://www.w3.org/2000/svg" viewBox="0 0 507.49 132.87"><defs><style>.cls-1{fill:#e52421;}</style></defs><polygon class="cls-1" points="40.48 132.87 0 132.87 35.6 0 76.08 0 40.48 132.87"/><polygon class="cls-1" points="104.35 116.26 63.73 116.77 90.7 16.1 131.19 16.1 104.35 116.26"/><polygon class="cls-1" points="159.31 132.87 118.83 132.87 154.43 0 194.91 0 159.31 132.87"/><polygon class="cls-1" points="388.11 32.19 396.73 0 507.49 0 498.87 32.19 388.11 32.19"/><polygon class="cls-1" points="374.83 81.74 383.04 51.12 474.69 51.12 466.49 81.74 374.83 81.74"/><polygon class="cls-1" points="361.13 132.87 369.76 100.68 480.52 100.68 471.89 132.87 361.13 132.87"/><polygon class="cls-1" points="275.3 132.87 315.78 132.87 333.58 66.43 293.21 66.43 284.2 99.65 275.3 132.87"/><polygon class="cls-1" points="234.82 0 217.02 66.43 257.5 66.43 275.3 0 234.82 0"/><polyline class="cls-1" points="217.02 66.43 257.5 66.43 266.4 33.22 275.3 0"/><polygon class="cls-1" points="226.03 32.19 234.65 0 345.41 0 336.78 32.19 226.03 32.19"/><polygon class="cls-1" points="203.66 132.87 212.28 100.68 323.04 100.68 314.42 132.87 203.66 132.87"/></svg>