<?xml version="1.0" standalone="no"?>
<!DOCTYPE svg PUBLIC "-//W3C//DTD SVG 20010904//EN"
 "http://www.w3.org/TR/2001/REC-SVG-20010904/DTD/svg10.dtd">
<svg version="1.0" xmlns="http://www.w3.org/2000/svg"
 width="408.000000pt" height="511.802659pt" viewBox="0 0 408.000000 511.802659"
 preserveAspectRatio="xMidYMid meet">
<metadata>
Created by potrace 1.12, written by Peter Selinger 2001-2015
</metadata>
<g transform="translate(-52.000000,511.802659) scale(0.100000,-0.100000)"
fill="#000000" stroke="none">
<path d="M2450 5115 c-8 -2 -49 -9 -90 -15 -82 -14 -217 -58 -295 -98 -271
-137 -478 -395 -558 -697 -19 -75 -21 -110 -24 -572 l-4 -493 -213 0 c-179 0
-225 -3 -290 -20 -113 -29 -190 -73 -276 -160 -87 -86 -131 -163 -160 -276
-19 -75 -20 -114 -20 -1164 0 -1050 1 -1089 20 -1164 29 -113 73 -190 160
-276 86 -87 163 -131 276 -160 75 -19 116 -20 1584 -20 1468 0 1509 1 1584 20
113 29 190 73 276 160 87 86 131 163 160 276 19 75 20 114 20 1164 0 1050 -1
1089 -20 1164 -29 113 -73 190 -160 276 -86 87 -163 131 -276 160 -65 17 -111
20 -291 20 l-213 0 0 448 c0 484 -6 558 -55 702 -123 360 -422 625 -800 706
-64 14 -300 28 -335 19z m247 -410 c50 -9 112 -31 173 -61 178 -88 316 -262
355 -449 12 -55 15 -163 15 -512 l0 -443 -680 0 -680 0 0 443 c0 501 3 529 71
665 133 270 437 416 746 357z m1406 -1894 c21 -13 50 -42 65 -64 l27 -41 0
-1085 0 -1086 -24 -38 c-13 -21 -42 -50 -64 -65 l-41 -27 -1506 0 -1506 0 -41
27 c-22 15 -51 44 -64 65 l-24 38 -3 1063 c-2 732 1 1076 8 1103 13 48 76 114
122 128 20 6 601 9 1523 8 l1490 -2 38 -24z"/>
<path d="M2449 2241 c-151 -48 -259 -194 -259 -351 0 -101 66 -237 141 -291
l29 -20 0 -243 c0 -235 1 -244 23 -287 13 -24 43 -57 66 -74 37 -26 51 -30
111 -30 60 0 74 4 111 30 79 56 84 75 87 357 l3 247 29 21 c74 53 140 189 140
290 0 66 -33 166 -75 222 -90 122 -259 176 -406 129z"/>
</g>
</svg>
