<?xml version="1.0" standalone="no"?>
<!DOCTYPE svg PUBLIC "-//W3C//DTD SVG 20010904//EN"
 "http://www.w3.org/TR/2001/REC-SVG-20010904/DTD/svg10.dtd">
<svg version="1.0" xmlns="http://www.w3.org/2000/svg"
 width="510.955402pt" height="511.221357pt" viewBox="0 0 510.955402 511.221357"
 preserveAspectRatio="xMidYMid meet">
<metadata>
Created by potrace 1.12, written by Peter Selinger 2001-2015
</metadata>
<g transform="translate(-0.496528,511.717885) scale(0.100000,-0.100000)"
fill="#000000" stroke="none">
<path d="M2465 5107 c-22 -8 -51 -19 -65 -26 -40 -21 -809 -791 -837 -838 -16
-28 -27 -65 -30 -103 -10 -108 50 -193 171 -239 73 -27 133 -76 175 -141 123
-190 55 -443 -146 -542 -75 -37 -179 -48 -262 -28 -109 26 -211 118 -252 226
-30 77 -67 121 -126 150 -46 23 -63 26 -113 21 -38 -3 -75 -14 -103 -30 -23
-14 -220 -205 -438 -424 -446 -448 -434 -432 -434 -578 0 -132 0 -132 398
-532 193 -194 349 -354 346 -355 -99 -67 -130 -92 -181 -147 -66 -73 -137
-207 -159 -301 -18 -77 -16 -232 4 -310 63 -243 254 -434 497 -497 85 -21 235
-21 320 0 101 26 218 89 291 156 55 50 80 81 147 180 1 3 161 -153 355 -346
400 -398 400 -398 532 -398 146 0 130 -12 578 434 219 218 410 415 424 438 16
28 27 65 30 103 10 108 -50 193 -171 239 -73 27 -133 76 -176 142 -123 190
-54 442 149 542 61 30 73 32 166 32 90 0 106 -3 160 -29 69 -34 145 -106 166
-156 46 -112 75 -155 123 -185 43 -26 59 -30 120 -30 59 0 79 5 116 27 25 14
221 203 436 420 444 446 437 438 438 578 1 137 4 134 -397 537 -193 194 -349
354 -346 355 2 2 30 21 62 42 85 57 171 157 217 250 54 109 73 191 73 306 0
186 -65 344 -197 476 -132 132 -290 197 -476 197 -115 0 -197 -19 -306 -73
-93 -46 -193 -132 -250 -217 -21 -32 -40 -60 -42 -62 -1 -3 -161 153 -355 347
-284 283 -362 355 -402 373 -61 27 -173 35 -230 16z m499 -676 c349 -346 396
-390 440 -405 58 -19 87 -20 140 -5 41 11 115 73 133 111 6 13 25 53 42 90 36
76 88 128 167 164 233 109 487 -24 535 -280 28 -153 -66 -330 -209 -393 -93
-40 -104 -47 -134 -77 -47 -47 -62 -85 -62 -156 0 -44 6 -77 18 -100 10 -19
191 -208 402 -420 211 -212 384 -392 384 -400 0 -14 -648 -670 -662 -670 -4 0
-23 25 -43 55 -88 133 -254 246 -411 281 -101 22 -273 15 -357 -15 -288 -102
-467 -349 -467 -645 0 -115 20 -199 71 -303 47 -95 140 -202 224 -258 30 -20
55 -39 55 -43 0 -14 -656 -662 -670 -662 -8 0 -188 173 -400 384 -212 211
-401 392 -420 402 -23 12 -56 18 -100 18 -71 0 -109 -15 -156 -62 -30 -30 -37
-41 -77 -134 -63 -143 -240 -237 -393 -209 -169 32 -283 146 -315 314 -28 155
64 330 209 394 95 41 102 46 142 89 59 65 73 132 44 220 -15 44 -59 91 -405
440 -214 214 -389 396 -389 404 0 14 648 670 662 670 4 0 23 -25 43 -55 86
-128 253 -244 405 -280 198 -46 429 8 585 136 195 160 287 433 230 679 -36
152 -152 319 -280 405 -30 20 -55 39 -55 43 0 14 656 662 670 662 8 0 190
-175 404 -389z"/>
</g>
</svg>
