<?xml version="1.0" standalone="no"?>
<!DOCTYPE svg PUBLIC "-//W3C//DTD SVG 20010904//EN"
 "http://www.w3.org/TR/2001/REC-SVG-20010904/DTD/svg10.dtd">
<svg version="1.0" xmlns="http://www.w3.org/2000/svg"
 width="511.884664pt" height="439.947873pt" viewBox="0 0 511.884664 439.947873"
 preserveAspectRatio="xMidYMid meet">
<metadata>
Created by potrace 1.12, written by Peter Selinger 2001-2015
</metadata>
<g transform="translate(-0.078809,475.947873) scale(0.100000,-0.100000)"
fill="#000000" stroke="none">
<path d="M1230 4754 c-14 -2 -59 -9 -100 -15 -155 -23 -342 -97 -494 -197 -93
-62 -243 -206 -321 -311 -123 -164 -230 -406 -275 -623 -148 -717 121 -1439
780 -2098 388 -388 861 -720 1503 -1054 112 -58 134 -66 183 -66 172 0 265
197 153 324 -17 20 -73 57 -132 87 -1662 851 -2414 1945 -2026 2949 34 89 119
229 187 309 105 123 273 228 438 273 107 29 357 31 484 4 308 -66 587 -237
768 -468 112 -142 251 -146 356 -9 64 83 210 218 301 279 146 97 300 162 475
199 128 27 377 24 484 -5 393 -108 659 -462 717 -953 24 -207 -5 -425 -88
-668 -49 -145 -52 -179 -16 -249 11 -20 39 -50 62 -67 37 -26 51 -30 109 -30
121 0 165 45 231 237 168 491 145 969 -69 1403 -320 649 -991 908 -1723 665
-201 -67 -394 -178 -570 -326 l-87 -75 -97 82 c-267 226 -573 359 -918 399
-85 9 -261 12 -315 4z"/>
<path d="M3692 3149 c-45 -13 -105 -76 -119 -124 -7 -22 -71 -393 -143 -825
-72 -432 -132 -789 -133 -795 -2 -5 -39 96 -82 225 -69 205 -83 238 -115 270
-60 60 -74 61 -566 58 l-440 -3 -41 -27 c-63 -41 -88 -90 -88 -169 0 -54 5
-72 27 -106 15 -22 44 -51 65 -64 38 -24 39 -24 398 -27 l360 -3 184 -551
c171 -512 186 -553 220 -587 35 -35 95 -61 141 -61 79 0 166 63 187 135 7 22
71 393 143 825 72 432 132 789 133 795 2 5 39 -96 82 -225 69 -205 83 -238
115 -270 60 -60 76 -61 546 -58 l420 3 41 27 c62 41 88 90 88 168 0 78 -26
127 -88 168 l-40 27 -341 3 -341 3 -184 551 c-171 512 -186 553 -220 587 -54
54 -130 72 -209 50z"/>
</g>
</svg>
