<?xml version="1.0" standalone="no"?>
<!DOCTYPE svg PUBLIC "-//W3C//DTD SVG 20010904//EN"
 "http://www.w3.org/TR/2001/REC-SVG-20010904/DTD/svg10.dtd">
<svg version="1.0" xmlns="http://www.w3.org/2000/svg"
 width="415.000000pt" height="351.378987pt" viewBox="0 0 415.000000 351.378987"
 preserveAspectRatio="xMidYMid meet">
<metadata>
Created by potrace 1.12, written by Peter Selinger 2001-2015
</metadata>
<g transform="translate(-48.500000,431.878987) scale(0.100000,-0.100000)"
fill="#000000" stroke="none">
<path d="M3123 4299 c-57 -28 -83 -72 -83 -139 0 -67 27 -112 84 -139 34 -17
62 -21 139 -21 l97 0 0 -1439 0 -1439 -109 -4 c-92 -2 -114 -6 -138 -24 -98
-73 -98 -195 0 -268 28 -20 39 -21 376 -21 l348 0 37 29 c90 68 86 190 -8 260
-21 16 -46 22 -107 25 l-79 3 0 164 0 164 358 0 357 0 60 28 c68 33 127 92
159 161 21 46 21 48 21 926 l0 880 -22 47 c-32 70 -94 131 -166 164 l-62 29
-352 3 -353 4 0 153 0 153 78 3 c68 4 84 8 116 33 90 68 86 190 -8 260 -26 20
-42 21 -364 24 -326 2 -338 2 -379 -19z m1197 -1729 l0 -800 -320 0 -320 0 0
800 0 800 320 0 320 0 0 -800z"/>
<path d="M755 3680 c-105 -15 -203 -90 -249 -189 -21 -46 -21 -48 -21 -926 0
-878 0 -880 21 -926 32 -69 91 -128 159 -161 l60 -28 1116 0 1116 0 33 23 c97
66 90 218 -13 275 -30 16 -109 17 -1104 20 l-1073 2 0 800 0 800 1074 0 1073
0 33 23 c98 66 92 211 -10 271 -35 21 -45 21 -1100 22 -586 1 -1088 -2 -1115
-6z"/>
</g>
</svg>
