<?xml version="1.0" standalone="no"?>
<!DOCTYPE svg PUBLIC "-//W3C//DTD SVG 20010904//EN"
 "http://www.w3.org/TR/2001/REC-SVG-20010904/DTD/svg10.dtd">
<svg version="1.0" xmlns="http://www.w3.org/2000/svg"
 width="447.386918pt" height="447.196246pt" viewBox="0 0 447.386918 447.196246"
 preserveAspectRatio="xMidYMid meet">
<metadata>
Created by potrace 1.12, written by Peter Selinger 2001-2015
</metadata>
<g transform="translate(-32.113082,479.696246) scale(0.100000,-0.100000)"
fill="#000000" stroke="none">
<path d="M970 4785 c-337 -69 -587 -328 -639 -665 -9 -56 -11 -473 -9 -1605 3
-1395 5 -1535 20 -1585 33 -109 60 -170 108 -243 113 -174 269 -285 485 -345
55 -16 195 -17 1625 -17 1430 0 1570 1 1625 17 106 29 172 58 248 108 174 113
285 269 345 485 16 55 17 195 17 1625 0 1430 -1 1570 -17 1625 -60 216 -171
372 -345 485 -73 48 -134 75 -243 108 -50 15 -189 17 -1605 19 -1251 1 -1563
-1 -1615 -12z m3145 -320 c172 -45 305 -179 350 -352 23 -86 23 -3020 0 -3106
-45 -173 -178 -307 -350 -352 -52 -13 -244 -15 -1555 -15 -1311 0 -1503 2
-1555 15 -172 45 -305 179 -350 352 -23 86 -23 3020 0 3106 45 171 177 306
346 351 84 23 3027 23 3114 1z"/>
<path d="M2430 4148 c-225 -12 -486 -79 -688 -179 -224 -111 -506 -325 -672
-510 -86 -96 -100 -120 -100 -176 0 -75 15 -90 404 -396 204 -161 382 -301
396 -310 15 -11 44 -17 76 -17 68 0 105 26 165 115 130 191 340 308 554 308
214 0 414 -110 553 -306 68 -96 110 -123 176 -113 54 8 52 7 481 346 287 227
351 282 366 315 41 89 16 140 -144 299 -232 229 -506 411 -767 509 -252 94
-507 131 -800 115z m295 -318 c283 -33 509 -119 759 -290 102 -70 276 -214
276 -229 0 -4 -37 -37 -82 -73 -46 -35 -147 -115 -225 -177 l-142 -112 -38 42
c-106 118 -303 236 -465 279 l-87 23 -3 143 c-3 125 -5 146 -24 170 -39 53
-71 69 -134 69 -63 0 -95 -16 -134 -69 -19 -24 -21 -45 -24 -170 l-3 -143 -85
-23 c-157 -41 -309 -128 -438 -250 l-71 -68 -220 174 c-121 96 -221 178 -223
183 -5 15 165 156 291 242 144 97 267 159 401 204 221 74 453 100 671 75z"/>
</g>
</svg>
